<svg xmlns="http://www.w3.org/2000/svg" width="24" height="24" viewBox="0 0 24 24" fill="none">
<g transform="translate(1.2491,3.2505)">
<g>
<path d="M0.750001 8.75C0.750001 5.21252 0.750001 3.44377 1.8028 2.2629C1.97119 2.07403 2.15678 1.89935 2.35746 1.74087C3.61213 0.75 5.49142 0.75 9.25 0.75H12.25C16.0086 0.75 17.8879 0.75 19.1425 1.74087C19.3432 1.89935 19.5288 2.07403 19.6972 2.2629C20.75 3.44377 20.75 5.21252 20.75 8.75C20.75 12.2875 20.75 14.0562 19.6972 15.2371C19.5288 15.426 19.3432 15.6006 19.1425 15.7591C17.8879 16.75 16.0086 16.75 12.25 16.75H9.25C5.49142 16.75 3.61213 16.75 2.35746 15.7591C2.15678 15.6006 1.97119 15.426 1.8028 15.2371C0.750001 14.0562 0.750001 12.2875 0.750001 8.75Z" stroke="#000000" stroke-width="1.5" stroke-linecap="round" stroke-linejoin="round"/>
<path d="M13.301 8.75C13.301 10.1307 12.1817 11.25 10.801 11.25C9.42027 11.25 8.30099 10.1307 8.30099 8.75C8.30099 7.36929 9.42027 6.25 10.801 6.25C12.1817 6.25 13.301 7.36929 13.301 8.75Z" stroke="#000000" stroke-width="1.5"/>
<path d="M3.75 8.75L4.75 8.75" stroke="#000000" stroke-width="1.5" stroke-linecap="round"/>
<path d="M16.75 8.75L17.75 8.75" stroke="#000000" stroke-width="1.5" stroke-linecap="round"/>
</g>
</g>
</svg>
