<svg xmlns="http://www.w3.org/2000/svg" width="24" height="24" viewBox="0 0 24 24" fill="none">
<g transform="translate(2.7494,1.2491)">
<g>
<path d="M14.25 0.75V2.75M9.25 0.75V2.75M4.25 0.75V2.75" stroke="#000000" stroke-width="1.5" stroke-linecap="round" stroke-linejoin="round"/>
<path d="M0.750001 8.75C0.750001 5.45017 0.750001 3.80025 1.77513 2.77513C2.80025 1.75 4.45017 1.75 7.75 1.75H10.75C14.0498 1.75 15.6997 1.75 16.7249 2.77513C17.75 3.80025 17.75 5.45017 17.75 8.75V13.75C17.75 17.0498 17.75 18.6997 16.7249 19.7249C15.6997 20.75 14.0498 20.75 10.75 20.75H7.75C4.45017 20.75 2.80025 20.75 1.77513 19.7249C0.750001 18.6997 0.750001 17.0498 0.750001 13.75V8.75Z" stroke="#000000" stroke-width="1.5" stroke-linecap="round" stroke-linejoin="round"/>
<path d="M5.25 13.75H9.25M5.25 8.75H13.25" stroke="#000000" stroke-width="1.5" stroke-linecap="round"/>
</g>
</g>
</svg>
